<mxfile host="app.diagrams.net" modified="2023-10-10T02:34:39.414Z" agent="Mozilla/5.0 (Windows NT 10.0; Win64; x64) AppleWebKit/537.36 (KHTML, like Gecko) Chrome/117.0.0.0 Safari/537.36 Edg/117.0.2045.47" etag="0ktlthMqdTqNPTa4hzcE" version="22.0.4" type="device">
  <diagram name="Página-1" id="FXtzCCCrRgP9jmL7KGzL">
    <mxGraphModel dx="971" dy="604" grid="1" gridSize="10" guides="1" tooltips="1" connect="1" arrows="1" fold="1" page="1" pageScale="1" pageWidth="827" pageHeight="1169" math="0" shadow="0">
      <root>
        <mxCell id="0" />
        <mxCell id="1" parent="0" />
        <mxCell id="wNVVoeFccXA5uulkaUjo-3" value="" style="edgeStyle=orthogonalEdgeStyle;rounded=0;orthogonalLoop=1;jettySize=auto;html=1;" edge="1" parent="1" source="wNVVoeFccXA5uulkaUjo-1" target="wNVVoeFccXA5uulkaUjo-2">
          <mxGeometry relative="1" as="geometry" />
        </mxCell>
        <mxCell id="wNVVoeFccXA5uulkaUjo-1" value="Início" style="ellipse;whiteSpace=wrap;html=1;" vertex="1" parent="1">
          <mxGeometry x="340" y="60" width="120" height="80" as="geometry" />
        </mxCell>
        <mxCell id="wNVVoeFccXA5uulkaUjo-5" value="" style="edgeStyle=orthogonalEdgeStyle;rounded=0;orthogonalLoop=1;jettySize=auto;html=1;" edge="1" parent="1" source="wNVVoeFccXA5uulkaUjo-2" target="wNVVoeFccXA5uulkaUjo-4">
          <mxGeometry relative="1" as="geometry" />
        </mxCell>
        <mxCell id="wNVVoeFccXA5uulkaUjo-2" value="Zerar contadores de votação" style="whiteSpace=wrap;html=1;" vertex="1" parent="1">
          <mxGeometry x="340" y="230" width="120" height="60" as="geometry" />
        </mxCell>
        <mxCell id="wNVVoeFccXA5uulkaUjo-9" style="edgeStyle=orthogonalEdgeStyle;rounded=0;orthogonalLoop=1;jettySize=auto;html=1;exitX=0.5;exitY=1;exitDx=0;exitDy=0;" edge="1" parent="1" source="wNVVoeFccXA5uulkaUjo-4" target="wNVVoeFccXA5uulkaUjo-8">
          <mxGeometry relative="1" as="geometry" />
        </mxCell>
        <mxCell id="wNVVoeFccXA5uulkaUjo-4" value="Apresentar lista de opções de votação" style="whiteSpace=wrap;html=1;" vertex="1" parent="1">
          <mxGeometry x="340" y="370" width="120" height="60" as="geometry" />
        </mxCell>
        <mxCell id="wNVVoeFccXA5uulkaUjo-17" value="" style="edgeStyle=orthogonalEdgeStyle;rounded=0;orthogonalLoop=1;jettySize=auto;html=1;" edge="1" parent="1" source="wNVVoeFccXA5uulkaUjo-8" target="wNVVoeFccXA5uulkaUjo-16">
          <mxGeometry relative="1" as="geometry" />
        </mxCell>
        <mxCell id="wNVVoeFccXA5uulkaUjo-8" value="opcao" style="html=1;strokeWidth=1;shape=manualInput;whiteSpace=wrap;rounded=1;size=13;arcSize=0;" vertex="1" parent="1">
          <mxGeometry x="350" y="490" width="100" height="60" as="geometry" />
        </mxCell>
        <mxCell id="wNVVoeFccXA5uulkaUjo-19" value="" style="edgeStyle=orthogonalEdgeStyle;rounded=0;orthogonalLoop=1;jettySize=auto;html=1;" edge="1" parent="1" source="wNVVoeFccXA5uulkaUjo-16" target="wNVVoeFccXA5uulkaUjo-18">
          <mxGeometry relative="1" as="geometry" />
        </mxCell>
        <mxCell id="wNVVoeFccXA5uulkaUjo-21" value="" style="edgeStyle=orthogonalEdgeStyle;rounded=0;orthogonalLoop=1;jettySize=auto;html=1;" edge="1" parent="1" source="wNVVoeFccXA5uulkaUjo-16" target="wNVVoeFccXA5uulkaUjo-20">
          <mxGeometry relative="1" as="geometry" />
        </mxCell>
        <mxCell id="wNVVoeFccXA5uulkaUjo-16" value="opcao == 1" style="rhombus;whiteSpace=wrap;html=1;strokeWidth=1;rounded=1;arcSize=0;" vertex="1" parent="1">
          <mxGeometry x="360" y="620" width="80" height="80" as="geometry" />
        </mxCell>
        <mxCell id="wNVVoeFccXA5uulkaUjo-30" style="edgeStyle=orthogonalEdgeStyle;rounded=0;orthogonalLoop=1;jettySize=auto;html=1;exitX=1;exitY=0.5;exitDx=0;exitDy=0;entryX=1;entryY=0.5;entryDx=0;entryDy=0;" edge="1" parent="1" source="wNVVoeFccXA5uulkaUjo-18" target="wNVVoeFccXA5uulkaUjo-4">
          <mxGeometry relative="1" as="geometry">
            <Array as="points">
              <mxPoint x="670" y="660" />
              <mxPoint x="670" y="400" />
            </Array>
          </mxGeometry>
        </mxCell>
        <mxCell id="wNVVoeFccXA5uulkaUjo-18" value="candidato1++" style="whiteSpace=wrap;html=1;strokeWidth=1;rounded=1;arcSize=0;" vertex="1" parent="1">
          <mxGeometry x="500" y="630" width="120" height="60" as="geometry" />
        </mxCell>
        <mxCell id="wNVVoeFccXA5uulkaUjo-23" value="" style="edgeStyle=orthogonalEdgeStyle;rounded=0;orthogonalLoop=1;jettySize=auto;html=1;" edge="1" parent="1" source="wNVVoeFccXA5uulkaUjo-20" target="wNVVoeFccXA5uulkaUjo-22">
          <mxGeometry relative="1" as="geometry" />
        </mxCell>
        <mxCell id="wNVVoeFccXA5uulkaUjo-25" value="" style="edgeStyle=orthogonalEdgeStyle;rounded=0;orthogonalLoop=1;jettySize=auto;html=1;" edge="1" parent="1" source="wNVVoeFccXA5uulkaUjo-20" target="wNVVoeFccXA5uulkaUjo-24">
          <mxGeometry relative="1" as="geometry" />
        </mxCell>
        <mxCell id="wNVVoeFccXA5uulkaUjo-20" value="opcao == 2" style="rhombus;whiteSpace=wrap;html=1;strokeWidth=1;rounded=1;arcSize=0;" vertex="1" parent="1">
          <mxGeometry x="360" y="780" width="80" height="80" as="geometry" />
        </mxCell>
        <mxCell id="wNVVoeFccXA5uulkaUjo-31" style="edgeStyle=orthogonalEdgeStyle;rounded=0;orthogonalLoop=1;jettySize=auto;html=1;exitX=1;exitY=0.5;exitDx=0;exitDy=0;" edge="1" parent="1" source="wNVVoeFccXA5uulkaUjo-22">
          <mxGeometry relative="1" as="geometry">
            <mxPoint x="670" y="659.9999999999998" as="targetPoint" />
          </mxGeometry>
        </mxCell>
        <mxCell id="wNVVoeFccXA5uulkaUjo-22" value="candidato2++" style="whiteSpace=wrap;html=1;strokeWidth=1;rounded=1;arcSize=0;" vertex="1" parent="1">
          <mxGeometry x="500" y="790" width="120" height="60" as="geometry" />
        </mxCell>
        <mxCell id="wNVVoeFccXA5uulkaUjo-27" style="edgeStyle=orthogonalEdgeStyle;rounded=0;orthogonalLoop=1;jettySize=auto;html=1;exitX=0;exitY=0.5;exitDx=0;exitDy=0;entryX=0;entryY=0.5;entryDx=0;entryDy=0;" edge="1" parent="1" source="wNVVoeFccXA5uulkaUjo-24" target="wNVVoeFccXA5uulkaUjo-4">
          <mxGeometry relative="1" as="geometry">
            <Array as="points">
              <mxPoint x="240" y="980" />
              <mxPoint x="240" y="400" />
            </Array>
          </mxGeometry>
        </mxCell>
        <mxCell id="wNVVoeFccXA5uulkaUjo-29" value="" style="edgeStyle=orthogonalEdgeStyle;rounded=0;orthogonalLoop=1;jettySize=auto;html=1;" edge="1" parent="1" source="wNVVoeFccXA5uulkaUjo-24" target="wNVVoeFccXA5uulkaUjo-28">
          <mxGeometry relative="1" as="geometry" />
        </mxCell>
        <mxCell id="wNVVoeFccXA5uulkaUjo-24" value="opcao != 0" style="rhombus;whiteSpace=wrap;html=1;strokeWidth=1;rounded=1;arcSize=0;" vertex="1" parent="1">
          <mxGeometry x="360" y="940" width="80" height="80" as="geometry" />
        </mxCell>
        <mxCell id="wNVVoeFccXA5uulkaUjo-28" value="Apresentar resultados" style="whiteSpace=wrap;html=1;strokeWidth=1;rounded=1;arcSize=0;" vertex="1" parent="1">
          <mxGeometry x="340" y="1110" width="120" height="60" as="geometry" />
        </mxCell>
      </root>
    </mxGraphModel>
  </diagram>
</mxfile>
